<svg width="82" height="73" viewBox="0 0 82 73" fill="none" xmlns="http://www.w3.org/2000/svg">
<path d="M49.6674 17.1244H38.8326C37.1087 17.1244 35.4554 17.7368 34.2364 18.8268C33.0175 19.9169 32.3326 21.3953 32.3326 22.9369C32.3326 24.4785 33.0175 25.9569 34.2364 27.0469C35.4554 28.137 37.1087 28.7494 38.8326 28.7494H43.1674C44.8913 28.7494 46.5446 29.3618 47.7636 30.4518C48.9825 31.5419 49.6674 33.0203 49.6674 34.5619C49.6674 35.3252 49.4992 36.081 49.1726 36.7862C48.8459 37.4914 48.3671 38.1322 47.7636 38.6719C47.16 39.2117 46.4434 39.6398 45.6548 39.9319C44.8662 40.224 44.021 40.3744 43.1674 40.3744H32.3326M41 40.3744V44.2506M41 13.25V17.1244" stroke="#344054" stroke-width="2.08" stroke-linecap="round" stroke-linejoin="round"/>
<path d="M15 71.375H67M75.6674 1.625H6.33264C3.94064 1.625 2 3.36038 2 5.49938V51.9994C2 54.1384 3.94064 55.8756 6.33264 55.8756H75.6674C78.0594 55.8756 80 54.1402 80 51.9994V5.49938C80 3.36038 78.0594 1.625 75.6674 1.625Z" stroke="#0297D4" stroke-width="2.08" stroke-linecap="round" stroke-linejoin="round"/>
</svg>
