<svg width="24" height="24" viewBox="0 0 24 24" fill="none" xmlns="http://www.w3.org/2000/svg">
<path d="M20.7072 14.7036C20.592 13.9032 19.974 13.2792 19.1784 13.0932C16.086 12.3684 15.3108 10.5876 15.18 8.61242C14.6316 8.51042 13.656 8.40002 12 8.40002C10.344 8.40002 9.36837 8.51042 8.81997 8.61242C8.68917 10.5876 7.91397 12.3684 4.82157 13.0932C4.02597 13.2804 3.40797 13.9032 3.29277 14.7036L2.69637 18.834C2.48637 20.2884 3.55437 21.6 5.03997 21.6H18.96C20.4444 21.6 21.5136 20.2884 21.3036 18.834L20.7072 14.7036ZM12 18.5904C10.326 18.5904 8.96877 17.2464 8.96877 15.5904C8.96877 13.9344 10.326 12.5904 12 12.5904C13.674 12.5904 15.0312 13.9344 15.0312 15.5904C15.0312 17.2464 13.6728 18.5904 12 18.5904ZM23.94 7.20002C23.9112 5.40002 19.3296 2.40122 12 2.40002C4.66917 2.40122 0.0875734 5.40002 0.0599734 7.20002C0.0323734 9.00002 0.0851734 11.3424 3.10197 10.9524C6.63117 10.4952 6.41397 9.26282 6.41397 7.50122C6.41397 6.27242 9.28437 5.97602 12 5.97602C14.7156 5.97602 17.5848 6.27242 17.586 7.50122C17.586 9.26282 17.3688 10.4952 20.898 10.9524C23.9136 11.3424 23.9676 9.00002 23.94 7.20002Z" fill="white"/>
</svg>
