<svg width="16" height="21" viewBox="0 0 16 21" fill="none" xmlns="http://www.w3.org/2000/svg">
<path fill-rule="evenodd" clip-rule="evenodd" d="M7.262 20.634C7.262 20.634 0 14.518 0 8.5C0 6.37827 0.842855 4.34344 2.34315 2.84315C3.84344 1.34285 5.87827 0.5 8 0.5C10.1217 0.5 12.1566 1.34285 13.6569 2.84315C15.1571 4.34344 16 6.37827 16 8.5C16 14.518 8.738 20.634 8.738 20.634C8.334 21.006 7.669 21.002 7.262 20.634ZM8 12C8.45963 12 8.91475 11.9095 9.33939 11.7336C9.76403 11.5577 10.1499 11.2999 10.4749 10.9749C10.7999 10.6499 11.0577 10.264 11.2336 9.83939C11.4095 9.41475 11.5 8.95963 11.5 8.5C11.5 8.04037 11.4095 7.58525 11.2336 7.16061C11.0577 6.73597 10.7999 6.35013 10.4749 6.02513C10.1499 5.70012 9.76403 5.44231 9.33939 5.26642C8.91475 5.09053 8.45963 5 8 5C7.07174 5 6.1815 5.36875 5.52513 6.02513C4.86875 6.6815 4.5 7.57174 4.5 8.5C4.5 9.42826 4.86875 10.3185 5.52513 10.9749C6.1815 11.6313 7.07174 12 8 12Z" fill="#777777"/>
</svg>
