<svg width="15" height="20" viewBox="0 0 15 20" fill="none" xmlns="http://www.w3.org/2000/svg">
<path d="M2.77198 0.439054L3.84898 0.0950539C4.85698 -0.226946 5.93498 0.294054 6.36698 1.31205L7.22698 3.34005C7.60198 4.22305 7.39398 5.26205 6.71298 5.90805L4.81998 7.70605C4.93665 8.78205 5.29798 9.84105 5.90398 10.8831C6.48025 11.8909 7.25242 12.7732 8.17498 13.4781L10.451 12.7181C11.313 12.4311 12.252 12.7621 12.781 13.5391L14.013 15.3491C14.629 16.2531 14.518 17.4991 13.755 18.2651L12.937 19.0861C12.123 19.9031 10.961 20.2001 9.88498 19.8641C7.34631 19.0721 5.01198 16.7211 2.88198 12.8111C0.749313 8.89439 -0.00335383 5.57172 0.62398 2.84305C0.88798 1.69505 1.70598 0.780054 2.77398 0.439054" fill="white"/>
</svg>
