<svg xmlns="http://www.w3.org/2000/svg" width="82" height="73" fill="none" viewBox="0 0 82 73"><path stroke="#344054" stroke-linecap="round" stroke-linejoin="round" stroke-width="2.08" d="M49.667 17.124H38.833c-1.724 0-3.378.613-4.597 1.703-1.218 1.09-1.903 2.568-1.903 4.11 0 1.541.684 3.02 1.903 4.11 1.22 1.09 2.873 1.702 4.597 1.702h4.334c1.724 0 3.378.613 4.597 1.703 1.218 1.09 1.903 2.568 1.903 4.11 0 .763-.168 1.519-.494 2.224a5.8 5.8 0 0 1-1.41 1.886c-.603.54-1.32.968-2.108 1.26a7.2 7.2 0 0 1-2.488.442H32.333m8.667 0v3.877m0-31.001v3.874"/><path stroke="#0297D4" stroke-linecap="round" stroke-linejoin="round" stroke-width="2.08" d="M15 71.375h52m8.667-69.75H6.333C3.94 1.625 2 3.36 2 5.499V52c0 2.14 1.94 3.877 4.333 3.877h69.334C78.059 55.877 80 54.141 80 52V5.5c0-2.139-1.94-3.874-4.333-3.874"/></svg>