<svg xmlns="http://www.w3.org/2000/svg" width="24" height="24" fill="none" viewBox="0 0 24 24"><path fill="#fff" d="M20.707 14.704c-.115-.8-.733-1.425-1.529-1.61-3.092-.726-3.867-2.506-3.998-4.482C14.632 8.51 13.656 8.4 12 8.4s-2.632.11-3.18.212c-.13 1.976-.906 3.756-3.998 4.481-.796.187-1.414.81-1.53 1.61l-.596 4.131c-.21 1.454.858 2.766 2.344 2.766h13.92c1.484 0 2.554-1.312 2.344-2.766zM12 18.59c-1.674 0-3.031-1.344-3.031-3s1.357-3 3.031-3 3.031 1.344 3.031 3-1.358 3-3.031 3M23.94 7.2C23.911 5.4 19.33 2.401 12 2.4 4.67 2.401.088 5.4.06 7.2s.025 4.142 3.042 3.752c3.53-.457 3.312-1.69 3.312-3.45 0-1.23 2.87-1.526 5.586-1.526s5.585.296 5.586 1.525c0 1.762-.217 2.994 3.312 3.451 3.016.39 3.07-1.952 3.042-3.752"/></svg>